<?xml version="1.0" encoding="UTF-8"?>
<svg version="1.1" xmlns="http://www.w3.org/2000/svg" width="2000" height="2000">
<path d="M0 0 C660 0 1320 0 2000 0 C2000 660 2000 1320 2000 2000 C1340 2000 680 2000 0 2000 C0 1340 0 680 0 0 Z " fill="#FEFEFE" transform="translate(0,0)"/>
<path d="M0 0 C35.97 0 71.94 0 109 0 C110.11296473 23.92874174 111.1608044 47.70698848 111.71875 71.62890625 C111.9949289 81.96080221 112.55760557 92.27106337 113.13424683 102.58978271 C113.97498876 117.78791379 114.3881052 132.98166557 114.65820312 148.19995117 C114.81509451 156.73331536 115.08569773 165.23114428 115.63491821 173.74859619 C116.08607287 180.9248045 116.2406543 188.10061747 116.38842773 195.28842163 C116.68210374 209.27181934 117.21811477 223.22327914 118 237.1875 C118.89497385 253.18775695 119.37383334 269.17753758 119.65820312 285.19995117 C119.81444814 293.70263283 120.08041466 302.17101486 120.62585449 310.65795898 C121.1040363 318.25815836 121.31451106 325.86195964 121.50268555 333.47412109 C121.56230027 335.86698305 121.62753448 338.25964546 121.69335938 340.65234375 C121.82048806 345.43453057 121.91662322 350.21686836 122 355 C122.02498566 356.2845105 122.02498566 356.2845105 122.05047607 357.5949707 C122.09629225 360.17528978 122.12655443 362.75534812 122.15234375 365.3359375 C122.16745499 366.11999969 122.18256622 366.90406189 122.19813538 367.71188354 C122.24047832 375.2738293 120.23267234 380.39512232 115.16796875 386.04296875 C106.44497812 394.38744697 97.39182475 394.43827625 85.86207581 394.38768005 C84.31478153 394.39185593 82.76749032 394.39733484 81.22020477 394.40399987 C76.98000361 394.41843986 72.73999706 394.41421429 68.4997853 394.40683305 C63.92232371 394.40210013 59.34490415 394.41461231 54.76745605 394.42485046 C45.80454508 394.4420411 36.84170421 394.44287795 27.87878103 394.43763756 C20.59357218 394.43359528 13.30838405 394.43504011 6.02317619 394.44038582 C4.46755913 394.44150845 4.46755913 394.44150845 2.88051547 394.44265376 C0.77366432 394.44418525 -1.33318683 394.44572359 -3.44003797 394.44726873 C-23.19469843 394.46099463 -42.94931929 394.45555535 -62.70397884 394.44408352 C-80.77460425 394.43415011 -98.84512729 394.44709354 -116.91573691 394.47101771 C-135.47423795 394.49540258 -154.0326913 394.50501814 -172.59120804 394.49836498 C-183.00899582 394.49487153 -193.42670485 394.49711326 -203.84448051 394.51461601 C-212.71245426 394.52933027 -221.5802938 394.52998351 -230.44826489 394.5125451 C-234.97193977 394.50402653 -239.49537481 394.50190649 -244.01903725 394.51719666 C-248.16244306 394.53102809 -252.30540323 394.52630064 -256.44878317 394.50695742 C-257.94532822 394.50319236 -259.44190884 394.50613401 -260.93842226 394.51656907 C-271.06285613 394.58212979 -277.80593245 393.39612109 -286.25 387.875 C-293.19983922 380.609259 -294.73955092 373.07311503 -294.5234375 363.2890625 C-294.51873444 362.19967377 -294.51403137 361.11028503 -294.50918579 359.98788452 C-294.48800412 356.53292271 -294.43154472 353.07954379 -294.375 349.625 C-294.35846843 347.31511892 -294.34412672 345.00522107 -294.33203125 342.6953125 C-294.25844354 333.37834212 -294.06372532 324.16420377 -293.23086548 314.88095093 C-292.8827456 310.53679216 -292.78906778 306.19990537 -292.71875 301.84375 C-292.70034058 300.93475952 -292.68193115 300.02576904 -292.66296387 299.0892334 C-292.60506668 296.22621153 -292.55189829 293.36313648 -292.5 290.5 C-292.43145781 286.71864934 -292.35782905 282.93744555 -292.28125 279.15625 C-292.26767456 278.31525757 -292.25409912 277.47426514 -292.2401123 276.60778809 C-292.14930202 272.1467053 -291.91350587 267.73435827 -291.51367188 263.28979492 C-290.89504749 256.2683801 -290.69112567 249.25123392 -290.5 242.20703125 C-290.45933831 240.80758143 -290.41831476 239.40814208 -290.37695312 238.00871277 C-290.24769937 233.61007501 -290.12367843 229.21129746 -290 224.8125 C-289.83662162 219.02724613 -289.6706571 213.24207523 -289.5 207.45703125 C-289.47954117 206.76016331 -289.45908234 206.06329536 -289.43800354 205.34531021 C-289.1751478 196.49100121 -288.79758953 187.65826529 -288.21875 178.8190918 C-287.78349248 171.22005896 -287.66454159 163.60889519 -287.5 156 C-287.43061812 152.79157419 -287.35706095 149.58327971 -287.28125 146.375 C-287.26767456 145.68486816 -287.25409912 144.99473633 -287.2401123 144.28369141 C-287.13820434 139.98833213 -286.92861631 135.70764279 -286.65948486 131.41937637 C-286.01775181 121.18275229 -285.66453216 110.94719034 -285.36924744 100.69525909 C-285.27876596 97.55439712 -285.18519492 94.41363914 -285.09094238 91.27288818 C-284.89122651 84.59867168 -284.69550247 77.92434103 -284.5 71.25 C-284.27289516 63.51470546 -284.04406776 55.77946571 -283.81248474 48.04430389 C-283.72173901 44.99118923 -283.63329894 41.93801417 -283.54504395 38.88482666 C-283.48781379 36.95999859 -283.43048608 35.03517341 -283.37304688 33.11035156 C-283.35016098 32.29618774 -283.32727509 31.48202393 -283.30369568 30.64318848 C-283.00336458 20.75359013 -282.47084314 10.8877059 -282 1 C-246.03 1 -210.06 1 -173 1 C-176 10 -176 10 -177.31640625 13.84375 C-181.3281558 24.82394861 -181.3281558 24.82394861 -183.0546875 36.296875 C-183.16724135 40.02365807 -183.27563972 42.17686332 -185.8046875 45.05078125 C-187.22878183 46.2746915 -188.68914977 47.4580542 -190.1875 48.58984375 C-192.12297256 49.88651102 -192.12297256 49.88651102 -193 52 C-193.71910796 59.10855901 -193.51392888 64.32865346 -189 70 C-185.65396979 72.78283701 -182.82246795 73.89719151 -178.5 74.4375 C-172.93907012 73.74238376 -168.7883835 72.24302831 -165.125 67.9375 C-161.98971535 63.60343004 -161.55881998 60.9362926 -161.56640625 55.65625 C-162.18496243 51.86689681 -164.02746633 49.85203614 -166.6875 47.1796875 C-169.54264264 42.43811133 -168.0799598 36.33850364 -166.83203125 31.21679688 C-166.57486328 30.24323242 -166.57486328 30.24323242 -166.3125 29.25 C-166.04566406 28.21456055 -166.04566406 28.21456055 -165.7734375 27.15820312 C-163.28529694 17.88344468 -159.28885874 9.57771747 -155 1 C-109.79 1 -64.58 1 -18 1 C-10.36081682 14.36857056 -4 29.27427897 -4 45 C-5.62449243 46.70779973 -7.29220027 48.37550757 -9 50 C-11.09428889 54.18857777 -10.41793012 59.43859126 -10 64 C-7.97674143 68.53209919 -5.28250277 71.09524913 -0.91796875 73.30078125 C3.40196229 74.87566446 6.96117372 74.80587487 11.14453125 73.15234375 C16.42780544 70.26075584 19.22814244 66.74478041 21 61 C21.89365376 55.43948773 20.42878059 52.34071079 17.484375 47.796875 C16.08847379 45.88826838 16.08847379 45.88826838 13.94921875 44.84375 C10.76162098 41.82862746 10.7299245 37.96050852 10.0625 33.75 C8.26536108 23.68056239 5.9697337 13.91138482 1.34765625 4.7109375 C0 2 0 2 0 0 Z " fill="#8C52FF" transform="translate(625,772)"/>
<path d="M0 0 C10.91930791 8.49643299 20.43119646 17.70720433 28 29.3125 C28.5724646 30.18588013 28.5724646 30.18588013 29.15649414 31.0769043 C30.9178741 33.86096991 32.18386092 36.32143122 33.1328125 39.48828125 C33.46023438 40.35839844 33.78765625 41.22851562 34.125 42.125 C34.764375 42.28097656 35.40375 42.43695312 36.0625 42.59765625 C36.743125 42.77167969 37.42375 42.94570313 38.125 43.125 C43.15249962 51.96083058 45.28603616 62.15894239 47.265625 72.03125 C49.02996591 80.78111524 49.02996591 80.78111524 55.125 87.125 C57.98549421 91.56369792 58.75805877 94.8796559 58.125 100.125 C56.27803374 105.41765062 53.89621514 109.02371016 49.125 112.125 C48.526875 112.5375 47.92875 112.95 47.3125 113.375 C43.23193829 114.77404973 39.21997136 114.90796909 35.19140625 113.40234375 C30.57075362 110.94793257 27.45347149 107.78194299 25.125 103.125 C24.50746979 97.31139412 24.03749025 91.83453603 27.5 86.875 C28.36625 85.9675 29.2325 85.06 30.125 84.125 C30.785 84.125 31.445 84.125 32.125 84.125 C27.97148805 61.60995076 27.97148805 61.60995076 18.125 41.125 C15.63924919 40.66098495 15.63924919 40.66098495 12.68344116 40.72627258 C10.95020851 40.70746536 10.95020851 40.70746536 9.18196106 40.6882782 C7.90810043 40.68971329 6.63423981 40.69114838 5.32177734 40.69262695 C3.97173664 40.68361442 2.62170416 40.67328845 1.27168274 40.66174316 C-2.39959074 40.63408687 -6.07070935 40.62487706 -9.74207354 40.61888909 C-13.57651479 40.60952773 -17.41083931 40.58332628 -21.24520874 40.55888367 C-28.50893397 40.5151531 -35.77263663 40.48664653 -43.0364536 40.46356028 C-51.3048497 40.43654364 -59.57312874 40.39263005 -67.84144139 40.34727156 C-84.85256741 40.25433144 -101.86371869 40.18269373 -118.875 40.125 C-119.18131348 41.0627124 -119.48762695 42.0004248 -119.80322266 42.96655273 C-120.77965478 45.8440248 -121.92530837 48.45796025 -123.25 51.1875 C-127.56058369 60.52284694 -133.07969045 73.63782378 -130.875 84.125 C-129.54874207 86.11412778 -129.54874207 86.11412778 -127.875 88 C-124.63216015 91.90370295 -124.08342678 94.77790192 -124.421875 99.80078125 C-125.62350062 105.96429197 -130.04388744 109.60231375 -134.875 113.125 C-136.8125 113.9375 -136.8125 113.9375 -138.875 114.125 C-140.4528125 114.3415625 -140.4528125 114.3415625 -142.0625 114.5625 C-147.43324933 113.9461845 -150.82996169 111.62101115 -154.875 108.125 C-158.20137175 103.79063681 -158.55760933 99.23059013 -158.43359375 93.890625 C-157.47742343 89.15657893 -154.57680006 86.08961075 -150.875 83.125 C-149.885 82.795 -148.895 82.465 -147.875 82.125 C-147.91882813 80.82949219 -147.96265625 79.53398438 -148.0078125 78.19921875 C-148.00193056 73.18290744 -147.07651686 68.75421215 -145.75 63.9375 C-145.56179688 63.18919922 -145.37359375 62.44089844 -145.1796875 61.66992188 C-143.13155072 54.00861025 -140.089017 47.62437301 -136.875 40.125 C-172.515 40.125 -208.155 40.125 -244.875 40.125 C-244.875 39.795 -244.875 39.465 -244.875 39.125 C-230.68043958 39.10166971 -216.48588213 39.0840866 -202.2913065 39.07318783 C-195.70095215 39.06795828 -189.11061063 39.06085933 -182.52026367 39.04956055 C-176.16607982 39.03873422 -169.81190835 39.03272371 -163.45771599 39.03012276 C-161.02750389 39.02826805 -158.59729251 39.02464657 -156.16708565 39.01926994 C-152.77617019 39.01206289 -149.38530659 39.01100892 -145.99438477 39.01147461 C-144.97874954 39.00787933 -143.96311432 39.00428406 -142.91670227 39.00057983 C-141.99818481 39.0019545 -141.07966736 39.00332916 -140.13331604 39.00474548 C-139.33043435 39.00382369 -138.52755266 39.0029019 -137.70034122 39.00195217 C-135.875 39.125 -135.875 39.125 -134.875 40.125 C-134.3903125 39.30257812 -133.905625 38.48015625 -133.40625 37.6328125 C-129.02400617 30.33469104 -124.39585028 23.62976419 -118.875 17.125 C-118.29621094 16.38894531 -117.71742188 15.65289063 -117.12109375 14.89453125 C-107.97832515 3.737589 -95.08390209 -4.38317786 -81.875 -9.875 C-80.96089355 -10.25809326 -80.96089355 -10.25809326 -80.02832031 -10.64892578 C-54.56280825 -20.87580196 -22.25075174 -15.68803002 0 0 Z " fill="#FEFDFF" transform="translate(588.875,732.875)"/>
<path d="M0 0 C4.62 0 9.24 0 14 0 C14 56.43 14 112.86 14 171 C9.38 171 4.76 171 0 171 C-0.33 167.37 -0.66 163.74 -1 160 C-2.093125 160.886875 -3.18625 161.77375 -4.3125 162.6875 C-15.63025601 171.17581701 -28.02816215 174.10157205 -42 173 C-55.81193311 170.40832266 -66.65264595 163.22517168 -75 152 C-77.00774874 148.7725439 -78.58465012 145.52449871 -80 142 C-80.31839844 141.23300781 -80.63679688 140.46601562 -80.96484375 139.67578125 C-85.19050834 127.89455047 -83.76460089 115.36401704 -79 104 C-73.71119382 92.98426168 -65.83644372 85.49957654 -55 80 C-54.20335937 79.58492187 -53.40671875 79.16984375 -52.5859375 78.7421875 C-42.06316467 74.0834986 -28.68896797 74.21996352 -17.9375 78.0625 C-11.89742728 80.76158499 -5.71705717 84.28294283 -1 89 C-0.67 59.63 -0.34 30.26 0 0 Z " fill="#030303" transform="translate(1199,947)"/>
<path d="M0 0 C2.421875 2.2265625 2.421875 2.2265625 4 4 C4.33 0.37 4.66 -3.26 5 -7 C9.62 -7 14.24 -7 19 -7 C19.0093457 -4.82003418 19.01869141 -2.64006836 19.02832031 -0.39404297 C19.06212783 6.81853618 19.11769765 14.03083035 19.18390274 21.24318123 C19.22336725 25.6149353 19.25556065 29.98648826 19.27099609 34.35839844 C19.28616962 38.57968209 19.320627 42.80041282 19.36830902 47.02145004 C19.38311574 48.62969016 19.39104061 50.23800923 19.39188385 51.84631729 C19.39425753 54.10403237 19.42136593 56.36022433 19.45410156 58.61767578 C19.46298401 59.90118927 19.47186646 61.18470276 19.48101807 62.5071106 C20.12910725 66.86892687 21.87422001 69.87422001 25 73 C26.68183948 73.23287008 28.3712416 73.41264166 30.0625 73.5625 C31.691875 73.706875 33.32125 73.85125 35 74 C35 77.96 35 81.92 35 86 C29.89127608 87.99364836 25.35204669 89.08697436 19.98828125 87.34765625 C14.8773443 85.07937376 10.89958212 81.82594809 8 77 C7.33984375 74.27734375 7.33984375 74.27734375 7 72 C5.98292969 72.88751953 5.98292969 72.88751953 4.9453125 73.79296875 C-8.19783473 84.95190123 -19.7144883 89.24313612 -37 88 C-48.85618421 85.98444868 -60.68338964 79.08155068 -67.90625 69.4609375 C-76.24565914 56.91648731 -80.27401092 43.73992382 -77.3515625 28.65234375 C-73.59775769 15.1931889 -66.16079905 4.68388113 -54.375 -2.75 C-36.03651153 -12.91267418 -17.41464039 -10.1656891 0 0 Z " fill="#040404" transform="translate(1030,1032)"/>
<path d="M0 0 C9.04876932 7.21768241 15.27038131 16.26135444 17.98828125 27.5859375 C17.98828125 31.8759375 17.98828125 36.1659375 17.98828125 40.5859375 C-9.07171875 40.5859375 -36.13171875 40.5859375 -64.01171875 40.5859375 C-60.56589153 53.22063731 -57.4246925 61.71525096 -46.01171875 68.5859375 C-38.07016128 72.75005003 -28.5754121 72.7781575 -19.94921875 70.9296875 C-13.54869711 68.86729719 -8.39922971 65.72529893 -4.01171875 60.5859375 C-3.32659092 59.11523076 -2.65940627 57.63601249 -2.01171875 56.1484375 C-0.90625 54.12109375 -0.90625 54.12109375 0.98828125 52.5859375 C6.40001516 51.88005916 11.56345167 52.12696249 16.98828125 52.5859375 C12.16167748 67.22451867 3.30166726 76.65281124 -10.13671875 83.9609375 C-21.99194708 89.3736276 -35.90663993 89.05989848 -48.01171875 84.5859375 C-62.31445629 77.85314199 -71.599598 67.39805743 -77.01171875 52.5859375 C-79.78876142 38.8550043 -78.63950653 24.51943517 -71.01171875 12.5859375 C-53.28577583 -10.37174002 -24.51158191 -17.65550872 0 0 Z " fill="#050505" transform="translate(1187.01171875,843.4140625)"/>
<path d="M0 0 C3.94629897 2.53027405 7.04113128 4.78044692 9.65625 8.703125 C10.213125 8.17203125 10.77 7.6409375 11.34375 7.09375 C20.47446923 -1.35833469 28.24548621 -4.83734793 40.796875 -4.5625 C51.01799406 -3.85902217 57.8938661 1.23074899 64.65625 8.703125 C69.92816317 15.91056816 71.78657475 21.50068092 71.76977539 30.42114258 C71.76992142 31.07536194 71.77006744 31.7295813 71.7702179 32.40362549 C71.76952494 34.55167026 71.76176164 36.69962675 71.75390625 38.84765625 C71.75203988 40.34266614 71.75061701 41.83767665 71.74961853 43.33268738 C71.74581064 47.25684311 71.73599518 51.1809615 71.72491455 55.10510254 C71.71466321 59.11368301 71.71011294 63.12226955 71.70507812 67.13085938 C71.69437129 74.98830025 71.67678856 82.84570367 71.65625 90.703125 C67.03625 90.703125 62.41625 90.703125 57.65625 90.703125 C57.6469043 88.77597656 57.63755859 86.84882812 57.62792969 84.86328125 C57.5923088 78.47291432 57.53845175 72.08290111 57.47234726 65.69277954 C57.43295472 61.82104884 57.40072637 57.94954276 57.38525391 54.07763672 C57.37003248 50.33611759 57.33549163 46.59521635 57.28794098 42.85397339 C57.27318328 41.43160392 57.26521222 40.00914621 57.26436615 38.58670044 C57.25482739 30.58607151 57.12849712 24.482631 52.65625 17.703125 C46.67013553 12.01631626 41.89229276 11.27637368 33.80078125 11.3671875 C29.59697172 11.81629013 27.80262882 12.98193251 24.65625 15.703125 C23.99625 15.703125 23.33625 15.703125 22.65625 15.703125 C19.87837166 21.0604618 18.40750184 25.21900591 18.33740234 31.3293457 C18.32735672 31.97381149 18.3173111 32.61827728 18.30696106 33.28227234 C18.27624064 35.39780848 18.25912552 37.51321872 18.2421875 39.62890625 C18.22346683 41.10150731 18.20389274 42.57409775 18.1835022 44.04667664 C18.13226977 47.91156742 18.09259672 51.77649295 18.05535889 55.64154053 C18.0152633 59.58988985 17.96419636 63.53809576 17.9140625 67.48632812 C17.81740847 75.22516928 17.73398502 82.96406644 17.65625 90.703125 C12.70625 90.703125 7.75625 90.703125 2.65625 90.703125 C2.6469043 88.77597656 2.63755859 86.84882812 2.62792969 84.86328125 C2.5923088 78.47291432 2.53845175 72.08290111 2.47234726 65.69277954 C2.43295472 61.82104884 2.40072637 57.94954276 2.38525391 54.07763672 C2.37003248 50.33611759 2.33549163 46.59521635 2.28794098 42.85397339 C2.27318328 41.43160392 2.26521222 40.00914621 2.26436615 38.58670044 C2.30903081 26.4083327 2.30903081 26.4083327 -3.75518799 16.19580078 C-8.48892021 11.95337101 -12.8496637 10.19024936 -19.23046875 10.39453125 C-25.80414308 11.35445782 -30.12358832 15.01415335 -34.21484375 20.01953125 C-36.61008856 23.59167836 -36.49345642 26.93110666 -36.54907227 31.10229492 C-36.56392166 32.06855553 -36.56392166 32.06855553 -36.57907104 33.05433655 C-36.61062467 35.1807184 -36.63541905 37.30712258 -36.66015625 39.43359375 C-36.68073109 40.90904822 -36.7017277 42.38449686 -36.72312927 43.85993958 C-36.77829526 47.74131551 -36.82772862 51.62274415 -36.87597656 55.50421143 C-36.92623158 59.46574591 -36.98189676 63.42720394 -37.03710938 67.38867188 C-37.14462401 75.16009329 -37.24558377 82.93157885 -37.34375 90.703125 C-42.29375 90.703125 -47.24375 90.703125 -52.34375 90.703125 C-52.34375 60.013125 -52.34375 29.323125 -52.34375 -2.296875 C-47.39375 -2.296875 -42.44375 -2.296875 -37.34375 -2.296875 C-37.34375 0.013125 -37.34375 2.323125 -37.34375 4.703125 C-36.84746094 4.30480469 -36.35117187 3.90648437 -35.83984375 3.49609375 C-24.14810579 -5.62213073 -13.26294386 -7.21445847 0 0 Z " fill="#050505" transform="translate(959.34375,838.296875)"/>
<path d="M0 0 C6.6207597 5.43789683 12.7233207 11.66270259 16.92944336 19.19189453 C15.72421288 22.80758598 14.85758772 23.13858998 11.61694336 24.94189453 C10.83706055 25.39048828 10.05717773 25.83908203 9.25366211 26.30126953 C6.92944336 27.19189453 6.92944336 27.19189453 4.83959961 27.09033203 C2.28115457 25.88697342 1.29292735 24.37746627 -0.32055664 22.06689453 C-9.10094984 10.38435032 -21.37887564 3.39669451 -35.73461914 0.63330078 C-51.29462666 -1.42557609 -65.64220802 1.2153284 -78.61352539 10.25830078 C-89.65366405 18.94648621 -96.83414062 29.44957421 -100.07055664 43.19189453 C-100.25231445 43.79517578 -100.43407227 44.39845703 -100.62133789 45.02001953 C-103.63182348 59.5750629 -100.00797727 76.08068646 -92.10571289 88.44580078 C-82.52432917 101.37423217 -69.92702179 109.3073492 -54.07055664 112.19189453 C-38.1155243 113.84358945 -22.09178766 110.05425773 -9.38696289 100.08642578 C-4.20959205 95.61680846 0.12172972 90.87250798 3.92944336 85.19189453 C7.22625301 85.84974416 9.77062258 87.08610026 12.67944336 88.75439453 C13.47866211 89.20943359 14.27788086 89.66447266 15.10131836 90.13330078 C15.70459961 90.48263672 16.30788086 90.83197266 16.92944336 91.19189453 C12.79251796 103.74211764 -0.15954134 113.67420846 -11.12133789 119.93408203 C-28.44026439 128.60432917 -47.80584704 131.15315221 -66.43774414 125.51611328 C-76.83439891 121.72636493 -85.83453736 116.62159024 -94.07055664 109.19189453 C-94.76665039 108.58861328 -95.46274414 107.98533203 -96.17993164 107.36376953 C-105.9166955 98.38179357 -111.35887997 86.72443842 -115.07055664 74.19189453 C-115.43987305 72.95052734 -115.43987305 72.95052734 -115.81665039 71.68408203 C-120.4864617 52.68278083 -115.86825009 33.65257516 -106.07055664 17.19189453 C-103.94497719 13.96193793 -101.66351909 11.05628067 -99.07055664 8.19189453 C-98.50208008 7.53189453 -97.93360352 6.87189453 -97.34790039 6.19189453 C-71.75955735 -21.62388389 -28.97500866 -22.76875411 0 0 Z " fill="#040404" transform="translate(933.070556640625,991.80810546875)"/>
<path d="M0 0 C0.91136719 0.29519531 1.82273437 0.59039063 2.76171875 0.89453125 C11.2906502 3.98504034 16.71737641 8.63080482 23 15 C19.94146829 18.95614428 16.8900837 21.90561524 13 25 C10.08278732 23.65111184 7.74050974 22.08475275 5.25 20.0625 C-2.70977485 14.08901759 -10.07697634 12.95170939 -20 14 C-27.12105265 15.64106563 -32.082554 18.76967075 -36 25 C-37.82772969 30.48318907 -38.057972 36.7936971 -36.234375 42.3203125 C-30.62280795 52.39742234 -18.57141394 56.83340238 -8.5 61.0625 C7.28962151 67.74542657 21.33126544 74.36878327 28.875 90.625 C31.85341511 99.56024534 30.90437887 109.95555084 27.25 118.5078125 C21.77207632 129.42942284 14.83394789 135.2543757 3.5 139.9375 C-10.20921418 144.41792722 -23.99976043 142.99776861 -37 137 C-45.04130534 132.63598581 -54.85448646 124.91824577 -58 116 C-57.9296875 113.95703125 -57.9296875 113.95703125 -57 112 C-54.8203125 110.26171875 -54.8203125 110.26171875 -52.125 108.6875 C-51.24070312 108.15511719 -50.35640625 107.62273437 -49.4453125 107.07421875 C-47 106 -47 106 -44 107 C-42.640625 108.85546875 -42.640625 108.85546875 -41.25 111.1875 C-35.89542736 119.43537473 -29.68688273 123.82289757 -20 126 C-9.41608012 127.16804521 -0.56112594 125.79164058 7.9375 119.1875 C12.671091 114.69951985 14.15365587 109.98447336 14.4375 103.5625 C14.21088944 97.19125688 12.73040818 92.88351518 8.328125 88.234375 C0.6182373 81.60028558 -9.27781564 78.00152112 -18.46923828 73.89746094 C-32.18705414 67.73822316 -45.25217889 61.75955729 -51.8125 47.375 C-54.64915301 39.05844912 -53.86376794 28.24710095 -51 20 C-45.58035038 9.17852856 -36.80712188 3.12284875 -25.875 -1.25 C-17.36981671 -2.89616451 -8.2114675 -2.9674328 0 0 Z " fill="#040404" transform="translate(870,789)"/>
<path d="M0 0 C21.91264669 17.05047021 36.51414698 38.13068349 43.125 65.125 C43.4240625 66.22070312 43.723125 67.31640625 44.03125 68.4453125 C45.79049956 75.46602138 46.40228842 82.16813702 46.4375 89.375 C46.44297852 90.20990967 46.44845703 91.04481934 46.45410156 91.9050293 C46.38257002 97.86742998 46.38257002 97.86742998 44.125 100.125 C40.5 100.25 40.5 100.25 37.125 100.125 C33.80839222 94.71982571 33.58902291 89.96486245 33.25 83.8125 C31.35375101 58.61947766 20.49622567 35.28182375 2.140625 17.6953125 C-12.98091349 4.80674731 -31.18930282 -2.49676855 -51.125 -2.375 C-52.21184082 -2.37000488 -53.29868164 -2.36500977 -54.41845703 -2.35986328 C-71.95286356 -1.98280723 -86.55521537 4.89368334 -99.875 16.125 C-101.07769531 17.09179688 -101.07769531 17.09179688 -102.3046875 18.078125 C-116.56661019 30.07413474 -125.85331613 47.32162121 -130.875 65.125 C-131.20886719 66.27226563 -131.54273438 67.41953125 -131.88671875 68.6015625 C-133.52095572 75.17274719 -133.61739941 81.98524644 -133.99804688 88.72070312 C-134.06958984 89.75775391 -134.14113281 90.79480469 -134.21484375 91.86328125 C-134.27019287 92.80212158 -134.32554199 93.74096191 -134.38256836 94.70825195 C-134.95163019 97.50108441 -135.58588808 98.46392561 -137.875 100.125 C-142.98386957 100.7636087 -142.98386957 100.7636087 -145.54296875 98.9296875 C-149.8655424 93.07329739 -146.54981691 80.74910614 -145.55859375 74.04296875 C-141.73428488 52.12421565 -133.22237787 34.23578333 -118.875 17.125 C-118.29492188 16.38636719 -117.71484375 15.64773438 -117.1171875 14.88671875 C-107.9670997 3.73628708 -95.08470959 -4.38284213 -81.875 -9.875 C-80.96089355 -10.25809326 -80.96089355 -10.25809326 -80.02832031 -10.64892578 C-54.56280825 -20.87580196 -22.25075174 -15.68803002 0 0 Z " fill="#8E55FF" transform="translate(588.875,732.875)"/>
<path d="M0 0 C7.45676228 5.38892064 13.53926655 13.34946551 15.44921875 22.4921875 C16.72341067 33.25203038 14.42244705 42.71393363 7.76171875 51.3671875 C1.55956781 57.93889666 -7.40158592 62.64655904 -16.42626953 62.97436523 C-27.22745404 63.0623856 -35.26748587 60.65322573 -43.48828125 53.2421875 C-50.94582055 45.07353809 -53.19015008 35.45813214 -52.96484375 24.7265625 C-52.49680309 17.25811512 -48.85186549 11.27771053 -44.17578125 5.6171875 C-42.87640625 4.5653125 -42.87640625 4.5653125 -41.55078125 3.4921875 C-40.96554687 2.99203125 -40.3803125 2.491875 -39.77734375 1.9765625 C-27.71248123 -7.84700145 -13.30806825 -7.86663759 0 0 Z " fill="#FCFCFC" transform="translate(1019.55078125,1042.5078125)"/>
<path d="M0 0 C6.27646614 4.79860319 10.80575347 10.9797604 13.3125 18.5 C14.09227579 30.47786748 13.90166906 40.28856337 5.875 49.875 C-1.03986873 57.15534805 -7.53708823 61.51984905 -17.78320312 62.07836914 C-28.07007593 62.294756 -35.74473756 59.72194292 -43.6875 52.9375 C-44.3475 52.133125 -45.0075 51.32875 -45.6875 50.5 C-46.368125 49.778125 -47.04875 49.05625 -47.75 48.3125 C-54.22412002 38.91458385 -55.09834949 29.02808128 -53.25 17.85546875 C-50.80982166 9.1470823 -44.67733201 2.36581413 -37.07421875 -2.28125 C-24.39901191 -8.75369604 -11.79801168 -7.87610082 0 0 Z " fill="#FDFDFD" transform="translate(1184.6875,1043.5)"/>
<path d="M0 0 C4.95 0 9.9 0 15 0 C15 56.76 15 113.52 15 172 C10.05 172 5.1 172 0 172 C0 115.24 0 58.48 0 0 Z " fill="#0A0A0A" transform="translate(1083,757)"/>
<path d="M0 0 C0 4.95 0 9.9 0 15 C-1.64935547 15.00386719 -1.64935547 15.00386719 -3.33203125 15.0078125 C-14.51243731 15.22313696 -23.28490016 16.81292343 -31.4375 25.1875 C-37.63077399 33.62949161 -38.5984673 42.9288941 -38.609375 53.10546875 C-38.62591125 54.3106868 -38.64244751 55.51590485 -38.65948486 56.75764465 C-38.70766443 60.56764983 -38.72926989 64.37725673 -38.75 68.1875 C-38.77818465 70.78712909 -38.80811553 73.38673987 -38.83984375 75.98632812 C-38.91341589 82.32418593 -38.96317415 88.6618265 -39 95 C-43.62 95 -48.24 95 -53 95 C-53 64.31 -53 33.62 -53 2 C-48.38 2 -43.76 2 -39 2 C-38.67 5.96 -38.34 9.92 -38 14 C-37.278125 13.2575 -36.55625 12.515 -35.8125 11.75 C-24.92099314 1.10052662 -14.84409424 -0.26272733 0 0 Z " fill="#020202" transform="translate(1121,1023)"/>
<path d="M0 0 C4.62 0 9.24 0 14 0 C14 30.69 14 61.38 14 93 C9.38 93 4.76 93 0 93 C0 62.31 0 31.62 0 0 Z " fill="#000000" transform="translate(1050,836)"/>
<path d="M0 0 C35.97 0 71.94 0 109 0 C110.20719131 4.82876524 109.44079878 5.76533712 107.3125 10.125 C102.2095966 21.19540354 99.45935616 33.81707571 99 46 C98.96003906 47.05445313 98.92007813 48.10890625 98.87890625 49.1953125 C98.77179922 53.60355924 98.77179922 53.60355924 99 58 C100.88500271 60.31563087 100.88500271 60.31563087 104 60.25 C107.11499729 60.31563087 107.11499729 60.31563087 109 58 C109.39867815 55.7113986 109.39867815 55.7113986 109.4921875 53.046875 C109.55510986 52.04172852 109.61803223 51.03658203 109.68286133 50.00097656 C109.74626709 48.9281543 109.80967285 47.85533203 109.875 46.75 C111.11302858 29.48645006 116.26668261 15.46663479 124 0 C169.87 0 215.74 0 263 0 C263 0.33 263 0.66 263 1 C217.79 1 172.58 1 126 1 C125.34 2.98 124.68 4.96 124 7 C123.23085163 8.69788196 122.43883755 10.38557996 121.625 12.0625 C117.31441631 21.39784694 111.79530955 34.51282378 114 45 C115.32625793 46.98912778 115.32625793 46.98912778 117 48.875 C120.24283985 52.77870295 120.79157322 55.65290192 120.453125 60.67578125 C119.25149938 66.83929197 114.83111256 70.47731375 110 74 C108.0625 74.8125 108.0625 74.8125 106 75 C104.4221875 75.2165625 104.4221875 75.2165625 102.8125 75.4375 C97.44175067 74.8211845 94.04503831 72.49601115 90 69 C86.67362825 64.66563681 86.31739067 60.10559013 86.44140625 54.765625 C87.39757657 50.03157893 90.29819994 46.96461075 94 44 C94.99 43.67 95.98 43.34 97 43 C96.95617187 41.70449219 96.91234375 40.40898438 96.8671875 39.07421875 C96.87306944 34.05790744 97.79848314 29.62921215 99.125 24.8125 C99.31320312 24.06419922 99.50140625 23.31589844 99.6953125 22.54492188 C101.74344928 14.88361025 104.785983 8.49937301 108 1 C72.36 1 36.72 1 0 1 C0 0.67 0 0.34 0 0 Z " fill="#EDE4FF" transform="translate(344,772)"/>
<path d="M0 0 C5.40313255 3.86347885 9.57074634 8.32029863 13 14 C13 15.32 13 16.64 13 18 C-7.46 18 -27.92 18 -49 18 C-47.39549611 9.97748055 -42.71518596 4.84217836 -36.0390625 0.25390625 C-25.58593921 -6.17416382 -10.58754427 -6.46277388 0 0 Z " fill="#FCFCFC" transform="translate(1175,853)"/>
<path d="M0 0 C2.87029869 1.79393668 4.49131638 2.98263276 6 6 C6.41204834 10.63554388 5.87454146 13.30416098 3 17 C-0.42094119 19.56570589 -3.84773484 19.43708054 -8 19 C-10.75329021 17.20437595 -12.52627461 15.94745078 -14 13 C-14.68288206 6.05736576 -14.68288206 6.05736576 -12.0625 2 C-7.96602574 -0.67524849 -4.76875356 -0.95893414 0 0 Z " fill="#050505" transform="translate(1061,799)"/>
<path d="M0 0 C3 1 3 1 4.46484375 3.74609375 C7.33723527 10.94612024 9.71143042 18.05995459 11.4375 25.625 C11.61337646 26.38224365 11.78925293 27.1394873 11.97045898 27.91967773 C12.81708717 31.90824712 13.18949281 35.06612181 12 39 C9.03044165 36.03044165 8.97810521 32.37217288 8.25 28.375 C6.66852467 20.20950285 4.28762225 12.72448254 1.171875 5.02734375 C0 2 0 2 0 0 Z " fill="#E9DEFF" transform="translate(624,775)"/>
<path d="M0 0 C1.1640625 1.6171875 1.1640625 1.6171875 2 4 C1.0234375 6.8203125 1.0234375 6.8203125 -0.625 10.125 C-5.87797388 21.33816567 -8.20549648 33.68519548 -9 46 C-9.33 46 -9.66 46 -10 46 C-13.19341758 30.15938406 -6.23117313 14.3252743 0 0 Z " fill="#E5D8FF" transform="translate(452,772)"/>
<path d="M0 0 C0.99 0.33 1.98 0.66 3 1 C2.20335937 2.61455078 2.20335937 2.61455078 1.390625 4.26171875 C-3.7902926 14.91376371 -8.19823458 25.19231397 -10 37 C-11.485 37.495 -11.485 37.495 -13 38 C-11.48937621 24.40438592 -6.25741167 12.05131136 0 0 Z " fill="#F3EDFF" transform="translate(468,772)"/>
<path d="M0 0 C4.08338445 3.43722251 5.66215437 7.22023227 7.5625 12.0625 C7.86478516 12.82111328 8.16707031 13.57972656 8.47851562 14.36132812 C12.08549338 23.57046655 14.79090806 31.06860074 13 41 C12.67 41 12.34 41 12 41 C11.68869141 39.13021484 11.68869141 39.13021484 11.37109375 37.22265625 C9.50093387 26.67057866 6.87486812 17.18818167 2.48828125 7.40625 C1.38277799 4.87606931 0.51458275 2.68955252 0 0 Z " fill="#F0E9FF" transform="translate(608,773)"/>
<path d="M0 0 C3 1 3 1 4.16796875 2.890625 C7.55201294 10.72189969 7.55201294 10.72189969 7 15 C4.25484323 12.61666905 3.10919982 10.31090681 1.8125 6.9375 C1.46832031 6.05964844 1.12414062 5.18179688 0.76953125 4.27734375 C0 2 0 2 0 0 Z " fill="#F1EBFF" transform="translate(624,775)"/>
<path d="M0 0 C0.99 0.33 1.98 0.66 3 1 C2.57872639 3.31551097 2.13751879 5.62740355 1.6875 7.9375 C1.44386719 9.22527344 1.20023437 10.51304687 0.94921875 11.83984375 C0.63597656 12.88269531 0.32273437 13.92554688 0 15 C-0.99 15.33 -1.98 15.66 -3 16 C-2.30834212 10.58201328 -1.24200752 5.3177215 0 0 Z " fill="#EBE1FF" transform="translate(458,794)"/>
<path d="M0 0 C2.84540179 4.55264287 3.32100667 9.7988114 2.5625 15 C2.376875 15.66 2.19125 16.32 2 17 C1.67 17 1.34 17 1 17 C-1.48063781 5.47835991 -1.48063781 5.47835991 0 0 Z " fill="#E2D4FF" transform="translate(619,797)"/>
<path d="M0 0 C1.1484375 1.640625 1.1484375 1.640625 2 4 C1.1015625 6.796875 1.1015625 6.796875 -0.375 9.75 C-0.85710937 10.73484375 -1.33921875 11.7196875 -1.8359375 12.734375 C-2.22007812 13.48203125 -2.60421875 14.2296875 -3 15 C-3.33 15 -3.66 15 -4 15 C-3.50341703 9.33895411 -2.45489316 5.12325529 0 0 Z " fill="#EFE7FF" transform="translate(452,772)"/>
</svg>
